<svg width="30" height="30" viewBox="0 0 30 30" fill="none" xmlns="http://www.w3.org/2000/svg">
<circle cx="15" cy="15" r="15" fill="#2A819E"/>
<path d="M18.2192 6.41516H11.7805C8.81771 6.41516 6.41504 8.81784 6.41504 11.7807V18.2193C6.41504 21.1821 8.81771 23.5848 11.7805 23.5848H18.2192C21.182 23.5848 23.5847 21.1821 23.5847 18.2193V11.7807C23.5847 8.81784 21.182 6.41516 18.2192 6.41516ZM21.975 18.2193C21.975 20.2904 20.2902 21.9751 18.2192 21.9751H11.7805C9.70946 21.9751 8.02469 20.2904 8.02469 18.2193V11.7807C8.02469 9.70958 9.70946 8.02481 11.7805 8.02481H18.2192C20.2902 8.02481 21.975 9.70958 21.975 11.7807V18.2193Z" fill="#FFFBA2"/>
<path d="M15.0004 10.7074C12.6299 10.7074 10.708 12.6293 10.708 14.9998C10.708 17.3703 12.6299 19.2922 15.0004 19.2922C17.3709 19.2922 19.2928 17.3703 19.2928 14.9998C19.2928 12.6293 17.3709 10.7074 15.0004 10.7074ZM15.0004 17.6826C13.5217 17.6826 12.3177 16.4785 12.3177 14.9998C12.3177 13.52 13.5217 12.3171 15.0004 12.3171C16.4792 12.3171 17.6832 13.52 17.6832 14.9998C17.6832 16.4785 16.4792 17.6826 15.0004 17.6826Z" fill="#FFFBA2"/>
<path d="M19.6149 10.9585C19.9308 10.9585 20.1869 10.7024 20.1869 10.3865C20.1869 10.0707 19.9308 9.81458 19.6149 9.81458C19.299 9.81458 19.043 10.0707 19.043 10.3865C19.043 10.7024 19.299 10.9585 19.6149 10.9585Z" fill="#FFFBA2"/>
</svg>
